<?xml version="1.0" standalone="no"?><!DOCTYPE svg PUBLIC "-//W3C//DTD SVG 1.1//EN" "http://www.w3.org/Graphics/SVG/1.1/DTD/svg11.dtd"><svg t="1596005157711" class="icon" viewBox="0 0 1024 1024" version="1.1" xmlns="http://www.w3.org/2000/svg" p-id="5145" xmlns:xlink="http://www.w3.org/1999/xlink" width="200" height="200"><defs><style type="text/css"></style></defs><path d="M786.92 732.7l-107.48-44.21 38.44-76.76 99.78 59.56z" fill="#02C3F7" p-id="5146"></path><path d="M717.88 611.73l99.78 59.57-30.75 61.41-107.47-44.21 38.44-76.77m-17.84-61.09l-20.88 41.7-38.44 76.76-20.88 41.7 43.13 17.74 107.47 44.21 37.19 15.3 18.01-35.96 30.75-61.41 18.01-35.96-34.53-20.62-99.78-59.57-40.05-23.89z" fill="#2F57B2" p-id="5147"></path><path d="M839.9 720.44m-55.03 0a55.03 55.03 0 1 0 110.06 0 55.03 55.03 0 1 0-110.06 0Z" fill="#FFFFFF" p-id="5148"></path><path d="M839.94 665.4c8.28 0 16.69 1.88 24.6 5.84 27.18 13.61 38.17 46.67 24.57 73.84-9.65 19.27-29.07 30.4-49.25 30.4-8.28 0-16.69-1.88-24.6-5.84-27.18-13.61-38.17-46.67-24.57-73.84 9.65-19.26 29.08-30.4 49.25-30.4m0-43.31c-37.49 0-71.2 20.82-87.97 54.32-11.76 23.49-13.67 50.15-5.38 75.07 8.29 24.92 25.79 45.13 49.28 56.89 13.61 6.82 28.82 10.42 43.99 10.42 37.49 0 71.2-20.81 87.97-54.32 11.76-23.49 13.67-50.15 5.38-75.07-8.29-24.92-25.79-45.13-49.28-56.89-13.61-6.81-28.82-10.42-43.99-10.42z" fill="#2F57B2" p-id="5149"></path><path d="M205.33 623.75l93.06 69.6 46.2-72.35-102.3-55.13z" fill="#02C3F7" p-id="5150"></path><path d="M242.29 565.87L344.59 621l-46.2 72.36-93.06-69.6 36.96-57.89m-14.86-57.21l-21.64 33.9-36.96 57.88-21.64 33.9 32.21 24.09 93.06 69.6 37.35 27.93 25.1-39.31 46.2-72.36 25.1-39.31-41.05-22.12-102.3-55.13-35.43-19.07z" fill="#2F57B2" p-id="5151"></path><path d="M186.49 572.85m-56.94 0a56.94 56.94 0 1 0 113.88 0 56.94 56.94 0 1 0-113.88 0Z" fill="#FFFFFF" p-id="5152"></path><path d="M186.54 515.9c10.49 0 21.1 2.89 30.59 8.96 26.51 16.92 34.27 52.13 17.35 78.64-10.86 17.01-29.26 26.31-48.05 26.31-10.49 0-21.1-2.89-30.59-8.96-26.51-16.92-34.27-52.13-17.35-78.64 10.87-17.01 29.26-26.31 48.05-26.31m0-43.3c-34.43 0-66.04 17.31-84.55 46.31-14.41 22.57-19.17 49.4-13.4 75.55 5.77 26.15 21.38 48.49 43.95 62.9 16.15 10.31 34.79 15.76 53.9 15.76 34.43 0 66.04-17.31 84.55-46.31 29.75-46.59 16.04-108.7-30.55-138.45-16.15-10.31-34.79-15.76-53.9-15.76z" fill="#2F57B2" p-id="5153"></path><path d="M715.49 661.11c0-51.13-49.99-92.58-111.66-92.58H403.36c-61.67 0-111.66 41.45-111.66 92.58v66.11c0 8 17.25 135.55 17.25 135.55h172.47l7.39-47.38h28.34l7.39 47.38h172.47s18.48-127.48 18.48-135.55v-66.11z" fill="#02C3F7" p-id="5154"></path><path d="M715.75 884.42H506l-3.02-19.37-3.02 19.37H290.02l-2.54-18.76c-6.51-48.18-17.44-130.23-17.44-138.45V661.1c0-62.99 59.81-114.24 133.32-114.24h200.47c73.51 0 133.32 51.25 133.32 114.24v66.11c0 7.96-10.17 79.8-18.7 138.66l-2.7 18.55z m-172.68-43.31h135.18c7.63-53.07 15.07-106.75 15.58-114.29v-65.71c0-39.11-40.38-70.93-90.01-70.93H403.36c-49.63 0-90.01 31.82-90.01 70.93v65.76c0.49 7.99 8.33 68.02 14.53 114.25h135l7.39-47.39h65.41l7.39 47.38z" fill="#2F57B2" p-id="5155"></path><path d="M521.77 934.4h177.99c6.25 0 11.31-5.06 11.31-11.31v-75.35c0-6.25-5.06-11.31-11.31-11.31H521.77c-6.25 0-11.31 5.06-11.31 11.31v75.35c0 6.24 5.07 11.31 11.31 11.31z" fill="#FFFFFF" p-id="5156"></path><path d="M662.09 956.05H559.45c-38.95 0-70.64-31.69-70.64-70.64s31.69-70.64 70.64-70.64h102.64c38.95 0 70.64 31.69 70.64 70.64s-31.69 70.64-70.64 70.64z m-102.64-97.97c-15.07 0-27.33 12.26-27.33 27.33 0 15.07 12.26 27.33 27.33 27.33h102.64c15.07 0 27.33-12.26 27.33-27.33 0-15.07-12.26-27.33-27.33-27.33H559.45z" fill="#2F57B2" p-id="5157"></path><path d="M489.82 934.4H311.83c-6.25 0-11.31-5.06-11.31-11.31v-75.35c0-6.25 5.06-11.31 11.31-11.31h177.99c6.25 0 11.31 5.06 11.31 11.31v75.35c0 6.24-5.06 11.31-11.31 11.31z" fill="#FFFFFF" p-id="5158"></path><path d="M452.15 956.05H349.51c-38.95 0-70.64-31.69-70.64-70.64s31.69-70.64 70.64-70.64h102.64c38.95 0 70.64 31.69 70.64 70.64s-31.69 70.64-70.64 70.64z m-102.64-97.97c-15.07 0-27.33 12.26-27.33 27.33 0 15.07 12.26 27.33 27.33 27.33h102.64c15.07 0 27.33-12.26 27.33-27.33 0-15.07-12.26-27.33-27.33-27.33H349.51z" fill="#2F57B2" p-id="5159"></path><path d="M212.67 389.2a295.08 280.32 0 1 0 590.16 0 295.08 280.32 0 1 0-590.16 0Z" fill="#02C3F7" p-id="5160"></path><path d="M271.69 420.35a236.06 202.46 0 1 0 472.12 0 236.06 202.46 0 1 0-472.12 0Z" fill="#FFFFFF" p-id="5161"></path><path d="M396.33 187.72c-4.91 0-9.61-2.8-11.8-7.55-3.01-6.52-0.16-14.23 6.35-17.24l1.19-0.55c7.06-3.26 14.35-6.64 24.98-10 6.83-2.17 14.14 1.62 16.31 8.46 2.17 6.84-1.62 14.14-8.46 16.31-9.06 2.87-15.31 5.76-21.93 8.82l-1.2 0.55c-1.77 0.81-3.62 1.2-5.44 1.2z" fill="#FFFFFF" p-id="5162"></path><path d="M364.244909 218.564459a75.22 66.76 81.73 1 0 132.131557-19.205258 75.22 66.76 81.73 1 0-132.131557 19.205258Z" fill="#FFFFFF" p-id="5163"></path><path d="M553.383724 282.79047a66.72 75.27 11.221 1 0 29.294163-147.662263 66.72 75.27 11.221 1 0-29.294163 147.662263Z" fill="#FFFFFF" p-id="5164"></path><path d="M438.645403 222.066231a20.07 18.52 80.514 1 0 36.533511-6.104436 20.07 18.52 80.514 1 0-36.533511 6.104436Z" fill="#3F3F3F" p-id="5165"></path><path d="M537.187697 238.616689a18.51 20.08 12.809 1 0 8.903539-39.1606 18.51 20.08 12.809 1 0-8.903539 39.1606Z" fill="#3F3F3F" p-id="5166"></path><path d="M465.54 281.67a34.58 32.47 0 1 0 69.16 0 34.58 32.47 0 1 0-69.16 0Z" fill="#F26871" p-id="5167"></path><path d="M477.24 286.76a6.5 6.5 0 0 1-6.5-6.5c0-5.19 1.85-10.16 5.34-14.4 2.28-2.77 6.38-3.16 9.15-0.87a6.493 6.493 0 0 1 0.87 9.15c-1.57 1.91-2.37 3.97-2.37 6.12 0.01 3.59-2.9 6.5-6.49 6.5zM495.65 268.44c-3.07 0-5.8-2.18-6.38-5.31a6.498 6.498 0 0 1 5.2-7.58l0.93-0.16c3.51-0.57 6.87 1.86 7.43 5.4a6.499 6.499 0 0 1-5.4 7.43l-0.58 0.1c-0.41 0.08-0.81 0.12-1.2 0.12z" fill="#FFFFFF" p-id="5168"></path><path d="M560.24 300.4l76.61-34.05" fill="#02C3F7" p-id="5169"></path><path d="M560.24 304.73a4.331 4.331 0 0 1-1.76-8.29l76.61-34.05c2.19-0.98 4.75 0.01 5.72 2.2 0.97 2.19-0.01 4.75-2.2 5.72L562 304.35c-0.57 0.26-1.17 0.38-1.76 0.38z" fill="#2F57B2" p-id="5170"></path><path d="M683.66 419.19c-5.55 71.68-68.11 145.22-174.92 147.2-114.48 2.13-176.99-75.72-184.7-147.2-6.39-59.21 363.88-54.96 359.62 0z" fill="#F26871" p-id="5171"></path><path d="M500.66 317.42v55.33" fill="#02C3F7" p-id="5172"></path><path d="M500.66 377.08c-2.39 0-4.33-1.94-4.33-4.33v-55.33c0-2.39 1.94-4.33 4.33-4.33s4.33 1.94 4.33 4.33v55.33c0 2.39-1.94 4.33-4.33 4.33z" fill="#2F57B2" p-id="5173"></path><path d="M683.66 291.88L564.5 317.42" fill="#02C3F7" p-id="5174"></path><path d="M564.49 321.75c-2 0-3.8-1.39-4.23-3.42a4.33 4.33 0 0 1 3.33-5.14l119.16-25.53c2.33-0.49 4.64 0.99 5.14 3.33a4.33 4.33 0 0 1-3.33 5.14L565.4 321.66c-0.3 0.06-0.61 0.09-0.91 0.09z" fill="#2F57B2" p-id="5175"></path><path d="M687.92 364.23L564.5 338.7" fill="#02C3F7" p-id="5176"></path><path d="M687.92 368.57c-0.29 0-0.59-0.03-0.88-0.09l-123.42-25.53c-2.34-0.49-3.85-2.78-3.36-5.12a4.326 4.326 0 0 1 5.12-3.36L688.8 360c2.34 0.49 3.85 2.78 3.36 5.12-0.42 2.04-2.23 3.45-4.24 3.45z" fill="#2F57B2" p-id="5177"></path><path d="M440 300.4l-76.61-34.05" fill="#02C3F7" p-id="5178"></path><path d="M440 304.73c-0.59 0-1.18-0.12-1.76-0.38l-76.61-34.05a4.34 4.34 0 0 1-2.2-5.72 4.331 4.331 0 0 1 5.72-2.2l76.61 34.05a4.34 4.34 0 0 1 2.2 5.72 4.33 4.33 0 0 1-3.96 2.58z" fill="#2F57B2" p-id="5179"></path><path d="M316.58 291.88l119.17 25.54" fill="#02C3F7" p-id="5180"></path><path d="M435.75 321.75c-0.3 0-0.6-0.03-0.91-0.1l-119.16-25.53a4.33 4.33 0 0 1-3.33-5.14c0.5-2.34 2.8-3.82 5.14-3.33l119.16 25.53c2.34 0.5 3.83 2.8 3.33 5.14a4.332 4.332 0 0 1-4.23 3.43z" fill="#2F57B2" p-id="5181"></path><path d="M312.32 364.23l123.43-25.53" fill="#02C3F7" p-id="5182"></path><path d="M312.32 368.57c-2.01 0-3.81-1.41-4.24-3.45a4.339 4.339 0 0 1 3.36-5.12l123.42-25.53a4.342 4.342 0 0 1 5.12 3.36 4.339 4.339 0 0 1-3.36 5.12L313.2 368.48c-0.3 0.06-0.59 0.09-0.88 0.09z" fill="#2F57B2" p-id="5183"></path><path d="M307.67 183.65c-6 0-11.96-2.48-16.25-7.33-7.91-8.97-7.06-22.65 1.91-30.56l1.24-1.08c9.04-7.82 22.72-6.84 30.54 2.2 7.83 9.04 6.84 22.72-2.2 30.54l-0.93 0.81c-4.1 3.63-9.22 5.42-14.31 5.42z" fill="#2F57B2" p-id="5184"></path><path d="M507.75 670c-174.65 0-316.73-135.47-316.73-301.98 0-61.79 19.44-121.19 56.21-171.8 7.03-9.67 20.58-11.81 30.25-4.79 9.67 7.03 11.82 20.57 4.79 30.25-31.36 43.15-47.94 93.76-47.94 146.34 0 142.63 122.66 258.67 273.42 258.67s273.42-116.04 273.42-258.67-122.65-258.66-273.42-258.66c-43.01 0-84.17 9.17-122.32 27.26-10.8 5.12-23.72 0.52-28.84-10.29-5.12-10.81-0.52-23.72 10.29-28.84 44-20.86 91.39-31.44 140.87-31.44 174.65 0 316.73 135.46 316.73 301.98S682.4 670 507.75 670z" fill="#2F57B2" p-id="5185"></path><path d="M375.08 699.44a124.61 79.5 0 1 0 249.22 0 124.61 79.5 0 1 0-249.22 0Z" fill="#FFFFFF" p-id="5186"></path><path d="M707.49 651.81H282.03c-4.42 0-7.99-3.58-7.99-7.99v-53.26c0-4.42 3.58-7.99 7.99-7.99h425.46c4.42 0 7.99 3.58 7.99 7.99v53.26c0.01 4.42-3.57 7.99-7.99 7.99z" fill="#F26871" p-id="5187"></path><path d="M507.96 628.48m-54.81 0a54.81 54.81 0 1 0 109.62 0 54.81 54.81 0 1 0-109.62 0Z" fill="#FFC800" p-id="5188"></path><path d="M319.6 233.84c-2.98 0-5.97-1.02-8.42-3.1-5.46-4.65-6.12-12.85-1.47-18.32 3.43-4.03 7.79-8.94 14.12-14.79 5.27-4.88 13.49-4.56 18.36 0.71 4.87 5.27 4.55 13.49-0.71 18.36-5.33 4.93-9.05 9.12-11.98 12.56a12.947 12.947 0 0 1-9.9 4.58zM268.4 330.3c-1.18 0-2.38-0.16-3.58-0.5-6.9-1.97-10.89-9.16-8.92-16.06 5.23-18.32 12.39-40.32 25.75-64.61 3.46-6.28 11.35-8.59 17.65-5.12 6.29 3.46 8.58 11.36 5.12 17.65-12.09 21.97-18.45 41.45-23.53 59.22-1.63 5.7-6.83 9.42-12.49 9.42z" fill="#FFFFFF" p-id="5189"></path></svg>